
<global>
amp_veltrack=0
ampeg_release=0.85
xf_cccurve=gain
xfin_hicc1=127
xfout_hicc1=127
xfout_locc1=127
</global>

<group>
group_label=PP
lpc_hicc1=42
lpc_locc1=0

<region>
hikey=B2
hivel=127
lokey=A#2
lovel=0
lpc=12gYQwrot8NDClpDs4JeQThQN0JSrFjCgecRwazgX8EKJERBDueyv2UBnD+g5YJAWOfUv3cIUkDAXZy/SP/tP9Fj1778cZbALK0kP3w4C8C7bSJAhsUHQIaMn74ZlE2/
lpc_rms=-49.19
offset=10124
pitch_keycenter=A#2
sample=Trombone_Marcato_Full_PP_A#3.opus
tune=-41
</region>

<region>
hikey=B3
hivel=127
lokey=A#3
lovel=0
lpc=VXuOQ05QPcSn9gdExRnjwCbdbEKrNgrDUnmkwHQ9hcEy5gRCry/4vmD/t0AxtYJA0A8AQI8Iv8BSHKLA/94cP1M5uUBp0OrA5E8GwRdtW0HfYgtBIwFeQVLXQMIB9sNB
lpc_rms=-42.27
offset=7567
pitch_keycenter=A#3
sample=Trombone_Marcato_Full_PP_A#4.opus
tune=-18
</region>

<region>
hikey=D#5
hivel=127
lokey=A#4
lovel=0
lpc=hsFWQ7idJMRseC9E2v6Mw7XBCUP/S4nDk9tnQ35i4MJsy8tCNJTgwl4SlkI07mtAliKBwnRlOUJri2W/PwWrwFKy5UHkgGzCWBTFQZtgNcGXzxFCVXiDQWF6kcL9fRZC
lpc_rms=-37.84
offset=3108
pitch_keycenter=A#4
sample=Trombone_Marcato_Full_PP_A#5.opus
tune=-19
</region>

<region>
hikey=C#3
hivel=127
lokey=C3
lovel=0
lpc=eMLOQnsBccMeRAdDC04dQV7z+0FjLQHCZcLiwOz8BMGPbe9AHYq3P2q4aT6sAci/nGzOvl4sWj9d6FdA8PFYv4xkKD8OATHAx0kOv6L3br/fNwVAFqKrPtd9hD5IdSy/
lpc_rms=-52.96
offset=3882
pitch_keycenter=C3
sample=Trombone_Marcato_Full_PP_C4.opus
tune=-10
</region>

<region>
hikey=C#4
hivel=127
lokey=C4
lovel=0
lpc=mGUaQ6a31sMYOKxDdE7FwVO9TUF8t6vC/JxSQXrRq0D3gqFBGBz4wNlaDMGTMANA4zzhQM68JsDcB3JAcr4HwFX9L0Dgg5PAKzoPwVYV0EB4+6RAlniHQIA5H8G9UlJA
lpc_rms=-46.97
offset=6442
sample=Trombone_Marcato_Full_PP_C5.opus
tune=-16
</region>

<region>
hikey=D#3
hivel=127
lokey=D3
lovel=0
lpc=RSleQ65UEcR+xM1DBOSov1VBB0L+r8nCXhx6v88AM78PuqZBq1eAwNItO8BCh6RArrPcP4+BkkD10gvATLsswQO59j4ZD3K/Qd+zQEXFlkC/PphAVkalwHTHasE/5i1B
lpc_rms=-44.73
offset=7310
pitch_keycenter=D3
sample=Trombone_Marcato_Full_PP_D4.opus
tune=-22
</region>

<region>
hikey=D#4
hivel=127
lokey=D4
lovel=0
lpc=grWgQyc3YMSTADpEMtvcwmbIbUJaCizDN0z3QWChokAKuiZCG5NpwZ1E8cEf3k9Bn3hEQSwqrb+Y0BJBDw8rwb/NE0Hd+1zBhaaTwWjyu0ED6VlBTCxaQQA/asLiLfZB
lpc_rms=-39.93
offset=8358
pitch_keycenter=D4
sample=Trombone_Marcato_Full_PP_D5.opus
tune=-26
</region>

<region>
hikey=F2
hivel=127
lokey=C1
lovel=0
lpc=kUnbQreJiMO4ETlDCmATwW+jw0FMDB3CG5HbvwZZkL93o9FAbhj7v0ZJ8z6e4li/2PxhP7CLwT+y0WW/UARLP4ILkT7uH8e/Yu0WwOmeLUBBrb4/gyOJP85IucBP3kxA
lpc_rms=-50.85
offset=9366
pitch_keycenter=E2
sample=Trombone_Marcato_Full_PP_E3.opus
tune=-40
</region>

<region>
hikey=F3
hivel=127
lokey=E3
lovel=0
lpc=6rbDQqomYcMMXPdCDIvuQBrpB0LbPu7BbTmwwGADKMEg+KxABBkQQGugGcDKpxBAdLPavj096D9M1IBAp7VGwJSFxb7++wDA/QOgv2AhUz9bAzS+qt5FQAPdRj8S0g3A
lpc_rms=-53.51
offset=6837
pitch_keycenter=E3
sample=Trombone_Marcato_Full_PP_E4.opus
tune=-25
</region>

<region>
hikey=F4
hivel=127
lokey=E4
lovel=0
lpc=zP4aQ/R43sPS1MNDA0mEwm7VIEElFbHCPIs/QhCL3sDLogBBJF1nwbndYcDz3Z9BPyPrP9aBXsD07inBjfKowHGoW0HYsBJAbNErwecV9T9cZpVA47aUQK+mM8H4s5lA
lpc_rms=-45.92
offset=9290
pitch_keycenter=E4
sample=Trombone_Marcato_Full_PP_E5.opus
tune=-23
</region>

<region>
hikey=G2
hivel=127
lokey=F#2
lovel=0
lpc=iu63QgR0R8ONHr1CgVHnQANuFkLKLZHB/V3XwKr9PsH2ltA/BCXKv4oa1j/KEPc/06n/PxqtUD/IdhVALZcwwK4lTb+xj4U+U89CPuIUCMCIgI6/HDWAP5HnjUD16S3A
lpc_rms=-54.76
offset=6478
pitch_keycenter=F#2
sample=Trombone_Marcato_Full_PP_F#3.opus
tune=-35
</region>

<region>
hikey=G3
hivel=127
lokey=F#3
lovel=0
lpc=wy04Q2XC0sNnKmRD+1FZQaXeekKhGWbCZtmZwGJHdcF+CvJA+AmKP0CV0L+ZHb9Aig0AwGJVAsCppBnAbQytP74pOUBa/rdAo6Vmvz746T+x3fvAA2hQQJj9ZMGp/ERB
lpc_rms=-47.97
offset=5946
pitch_keycenter=F#3
sample=Trombone_Marcato_Full_PP_F#4.opus
tune=-18
</region>

<region>
hikey=G4
hivel=127
lokey=F#4
lovel=0
lpc=9DxVQyg6GcTJiQpESVkDw/zqTkLFbvrCn4R0QsV1E8LGOzxCQ+3JwZo9osGZ/u9BLHCGQYnsgMGOeS3BBBOJQFaIVUHk6rPBwjsuwcFlmEHumttBuf0nwf7FB8K6PZxB
lpc_rms=-42.26
offset=7612
pitch_keycenter=F#4
sample=Trombone_Marcato_Full_PP_F#5.opus
tune=-20
</region>

<region>
hikey=A2
hivel=127
lokey=G#2
lovel=0
lpc=+GzkQmV5isOWfCVDyfYeQS/cDkIdZyTC2PDWwHbeJcHoT69AGYPav33eF0B9oZZAJRuVP9t5jr5GHgZAG0u3v/UGqb7a9HnA/E1XwIebJEBCGINAXWNyQPd39sC8RCFA
lpc_rms=-51.71
offset=5900
pitch_keycenter=G#2
sample=Trombone_Marcato_Full_PP_G#3.opus
tune=-31
</region>

<region>
hikey=A3
hivel=127
lokey=G#3
lovel=0
lpc=6RsPQx32usO4qItDCW+SwZ0boUGsWqDCyW2cQfjye0AH6oJBEABIwN5BEsHPSqI/0NWpv+bIyT9CZxA/QvR2wJtS3kB1TVo/5GXMwMDYSUA4Yv2+CZUcQWbVj8EZDAdB
lpc_rms=-48.21
offset=6265
pitch_keycenter=G#3
sample=Trombone_Marcato_Full_PP_G#4.opus
tune=-17
</region>

<region>
hikey=A4
hivel=127
lokey=G#4
lovel=0
lpc=xoVEQyzTDsTiMAZEWdwrw1EaBEPYYljDkVXcQtzq8cE74jZCP4C/wsMA00KB6N/BTLbYwfeV1EGbeJfB6aALQaK89UClmMvBL7sqQcBmNkE7Q6fA6CADQqLRfMLy6PRB
lpc_rms=-40.32
offset=9311
pitch_keycenter=G#4
sample=Trombone_Marcato_Full_PP_G#5.opus
tune=-29
</region>
</group>

<group>
group_label=MF
lpc_hicc1=84
lpc_locc1=43

<region>
hikey=B2
hivel=127
lokey=A#2
lovel=0
lpc=WVj2Qn5J1sPQcxFED1zBwyd+GkPF9MHClw3YQsNQxsKECZ5C/aRqwuOQ50FGLTfB9dsLQtQNfMKHT1ZCZ0HnwZS9B0KFqYLCpB+YQmI9IsKZO1nBH8MgQisQ5sH/tv5A
lpc_rms=-38.45
offset=1132
pitch_keycenter=A#2
sample=Trombone_Marcato_Full_MF_A#3.opus
tune=-38
</region>

<region>
hikey=B3
hivel=127
lokey=A#3
lovel=0
lpc=Ix+FQ8JWbsQyeplEmH4bxFqRIEMeQofDc6SCQ1K0icKZ0mVAbWJGQA0ql8HMtgVCwQwRwtQFrz/MSS5CbqKdwuBT1kKpMu3CSjqqQnKSuMESNsJBOL2Hwmu6WkKgMlrB
lpc_rms=-34.41
offset=1134
pitch_keycenter=A#3
sample=Trombone_Marcato_Full_MF_A#4.opus
tune=-19
</region>

<region>
hikey=D#5
hivel=127
lokey=A#4
lovel=0
lpc=jBkHQ0E89sMQHzpEleUVxAK3mEPZPirDDnAFQ3MooMKf9FFCfU8iwldKysFSO9tCeDQBw0etqUI2v7LBtTBBwnq0/ELjyifDhYQTQ4c528I6IZxCIcb9wVRv58AXfBFB
lpc_rms=-29.89
offset=749
pitch_keycenter=A#4
sample=Trombone_Marcato_Full_MF_A#5.opus
tune=-25
</region>

<region>
hikey=C#3
hivel=127
lokey=C3
lovel=0
lpc=wR7BQi32qsN0pfBDyF2qw3KwD0NhmInCVfBQQoTLM8KB9kVCtD3qwQlX0sG3KHNCck8NwlbCs8GcgltCQAclwvsH5EF1kUTCzMCFQuoJRMI+CUxBSZAyQUNNQ8FnRnNA
lpc_rms=-41.46
offset=8251
pitch_keycenter=C3
sample=Trombone_Marcato_Full_MF_C4.opus
tune=-5
</region>

<region>
hikey=C#4
hivel=127
lokey=C4
lovel=0
lpc=8hoaQzn/BsSUIzFET8vQw/w6DkMzJczCiG2SQoGY08GEX45BTIeKwV6HV0EiZmA/L0SQwaV8JUHL95FBEmsRwjPHGUKjFgbCVhigQVmlJMGrSfhAkMISvk6upcB3fh5A
lpc_rms=-39.29
offset=472
sample=Trombone_Marcato_Full_MF_C5.opus
tune=-13
</region>

<region>
hikey=D#3
hivel=127
lokey=D3
lovel=0
lpc=SqWAQ/E6X8TAdpBEHe8lxKReP0Pjj/vCEbYDQx27cMIWCQzAAjnYQCDbtsGWd3VCq/oAwmIwFcIR24VC3pJywraylkLvutLC1aCtQsQSIsIk9TNBuhcfQRMVjsGZvu5A
lpc_rms=-35.20
offset=1815
pitch_keycenter=D3
sample=Trombone_Marcato_Full_MF_D4.opus
tune=-20
</region>

<region>
hikey=D#4
hivel=127
lokey=D4
lovel=0
lpc=Z1CiQ4JzmMRFc9VEJlx7xCwqf0MkbKDDS9fJQ3VFzcLTcwPC8lKvwmRLjEKlG7hCB1AFw7hgXkKbbBlB9DWTwgwaGkOs7SjDOCaoQtOjk8ES7HVCgn/ewnSQlkL085LB
lpc_rms=-31.16
offset=1619
pitch_keycenter=D4
sample=Trombone_Marcato_Full_MF_D5.opus
tune=-21
</region>

<region>
hikey=F2
hivel=127
lokey=C1
lovel=0
lpc=v8TEQmvMncNckrVDgVsiw0EB4kGVnS3C8zxHQmJGrMHMX0pAkhZNv0kIEkBgI1i/XNexv4W4AL867RdBbS2QwdrHhEFRydO/ZeUHwXuPCMDqwARBs73oP2lVwMCsvv0/
lpc_rms=-45.91
offset=5481
pitch_keycenter=E2
sample=Trombone_Marcato_Full_MF_E3.opus
tune=-22
</region>

<region>
hikey=F3
hivel=127
lokey=E3
lovel=0
lpc=mscXQ7y18cPszAxEvEaPw0H6wELZuM3CbwTaQqaGgcK626dBwQnRPpNKfcFAh6ZB7LJ1wZHKZEBc985B8Q9HwrPOaUKBLm/CVcI7QiRQF8Lj+upB9oDoP0BxrMEvBSRB
lpc_rms=-40.44
offset=1007
pitch_keycenter=E3
sample=Trombone_Marcato_Full_MF_E4.opus
tune=-20
</region>

<region>
hikey=F4
hivel=127
lokey=E4
lovel=0
lpc=x1UVQ1RkAsQ+TClEucC8w/Ud4UILxvXC+tMHQyy7ksJ/z/NBBzcWwffdI8H0bQlCyt5Jwrf5wEHKyhpCjCSYwoD8l0JA9ZfCB8GIQt51QMI3YydCtSQcwp8DqkHHupLA
lpc_rms=-38.65
offset=2248
pitch_keycenter=E4
sample=Trombone_Marcato_Full_MF_E5.opus
tune=-17
</region>

<region>
hikey=G2
hivel=127
lokey=F#2
lovel=0
lpc=odH+Qo36tcPCsKFDXBZzwgWAzUBLrHPCqE7OQbA5FcAXbxFBmz0uwHpFVr7uBk/AQzo+QZrqwsHIQ6hB3i4Bwc5a+kDxdbPALxAqwM5+OL9Rcp9AeI03wH45A0Bv84e/
lpc_rms=-46.70
offset=8476
pitch_keycenter=F#2
sample=Trombone_Marcato_Full_MF_F#3.opus
tune=-36
</region>

<region>
hikey=G3
hivel=127
lokey=F#3
lovel=0
lpc=aqY/Q3BJF8RfSyBELtRew6/qYUIXwAXD9b2PQrJ6osB/RHtBULALwYXA68Aj2aNB7J6Kwai33MBtpYtBMXKowYXzHkJB/hjCiVZQQTesWsGIU4NB2Cw5QdIWxcE8BhdB
lpc_rms=-41.05
offset=5274
pitch_keycenter=F#3
sample=Trombone_Marcato_Full_MF_F#4.opus
tune=-23
</region>

<region>
hikey=G4
hivel=127
lokey=F#4
lovel=0
lpc=IWcFQ7Al68Pj+RxEpZm7w4E5EENsAy7DMqs2Q2X9r8IyLh9C8JaiwbPWw8G86WtCtLKLwlsdYUI/i+nAn9BDwjoDoUIUiKXCqyGBQq0iZ8LvJZhCK3yXwovRHkIDQgXB
lpc_rms=-37.01
offset=538
pitch_keycenter=F#4
sample=Trombone_Marcato_Full_MF_F#5.opus
tune=-20
</region>

<region>
hikey=A2
hivel=127
lokey=G#2
lovel=0
lpc=DGXsQnOjwsM8Y+hDcvlmwxofkEKm5azC6pKMQgQCr8HNAEpBFdCWwYP7UkCP4O1BWRUYwpEX5kApedVBKqwkwh9GL0JQ5grCwoyCQXB6IcFSYm5BPIgLwVUH8r/s1BtA
lpc_rms=-41.44
offset=3177
pitch_keycenter=G#2
sample=Trombone_Marcato_Full_MF_G#3.opus
tune=-56
</region>

<region>
hikey=A3
hivel=127
lokey=G#3
lovel=0
lpc=XBZRQ20NK8QFU0xEWojjwwJVXkPuKVrDssU0Q9PXzMJkZSBCzf+XwSWOi8FULZBCjnKAwiIGdUG7/O5Btw6LwugloUIPxUrC1kxMQbOVVD6j5qM/xLX6QG5tbcFXR9FA
lpc_rms=-36.00
offset=1425
pitch_keycenter=G#3
sample=Trombone_Marcato_Full_MF_G#4.opus
tune=-33
</region>

<region>
hikey=A4
hivel=127
lokey=G#4
lovel=0
lpc=VQEKQ5s698PxiCZEQS3Gwyo4D0MOJR7D1m4GQ/R4+T8lTGPCPLyfQUK+68A92YpCfZQMwy4/20L2wqnA45g6wqSmhUITcuDCRPblQhuLnML8GJRCi8CDwnyb00EApgXA
lpc_rms=-34.21
offset=959
pitch_keycenter=G#4
sample=Trombone_Marcato_Full_MF_G#5.opus
tune=-28
</region>
</group>

<group>
group_label=FF
lpc_hicc1=127
lpc_locc1=85

<region>
hikey=B2
hivel=127
lokey=A#2
lovel=0
lpc=95bAQO6pUcGd901By+UewS7fBUGUoNbAAUOcQOEOWcADASRAYPvjv5r0YT+lHPe+JDMiPmz7bL77inQ/8G3Pv0zZEEAB0x3AGAAdQCe/CsD+nO4/yFDHv0qjVz+Em12+
lpc_rms=-29.83
offset=485
pitch_keycenter=A#2
sample=Trombone_Marcato_Full_FF_A#3.opus
tune=-36
</region>

<region>
hikey=B3
hivel=127
lokey=A#3
lovel=0
lpc=8aohQd+/08FRxAJClbXywToC1kHmUrLB/UGFQWObPMH1PQ1B3oW5wE82MEDKl5O/qvUGP9Pni75ucBM/arAtwL0tyUBCdQHBx2/6QDx168CYBt9AxwStwFoAK0DcDxq/
lpc_rms=-25.87
offset=2826
pitch_keycenter=A#3
sample=Trombone_Marcato_Full_FF_A#4.opus
tune=-23
</region>

<region>
hikey=D#5
hivel=127
lokey=A#4
lovel=0
lpc=zTCBQJ9H2MBQLpdADL09wEjDMUBq4ADAtJmOP8C1Yr+sFQQ/Ey46P+yepL8PG5k/lXxjv/htMD9SIBm+V8+GvmdHVj/kiT2/fCD3PlDCQL947GI/gL0mv52byD0vxic+
lpc_rms=-21.31
offset=3595
pitch_keycenter=A#4
sample=Trombone_Marcato_Full_FF_A#5.opus
tune=-19
</region>

<region>
hikey=C#3
hivel=127
lokey=C3
lovel=0
lpc=kEGPQIIbAcEoG8dAxv6FwArtXEBPRhnAMRvNP42RWL+q7Q0/HjJqviihhD13Zkc99R4Gvhy/Cr4Gjhc/aTeCvxywxT/IZZ+/KzOHP2dphL82jFI/Z/8yvy+qyz7BieS8
lpc_rms=-32.67
offset=2775
pitch_keycenter=C3
sample=Trombone_Marcato_Full_FF_C4.opus
tune=-11
</region>

<region>
hikey=C#4
hivel=127
lokey=C4
lovel=0
lpc=wBf3QEegmME9h7JBKmKcwRONhkHjCV3BH9kpQdIUAMF419ZAtmjNwNj4wUBODY7AArMMQFNJlL9yQuI/5KRBwOWajUAJ2ZXAwSuDQKe+YcAug0VABVIHwHTMgj9Q9VO+
lpc_rms=-27.69
offset=5021
sample=Trombone_Marcato_Full_FF_C5.opus
tune=-15
</region>

<region>
hikey=D#3
hivel=127
lokey=D3
lovel=0
lpc=78HFQJsuWcFsS1xByh0wwf5KE0GdeO/A+RWlQJApSsBLABZA+Xfyv+B6kD+kqve+E+mcPhRISL8SPqY/vmz4vxB9MUAHFDfAb6sLQF6/0r+JtbY/t8M4v5zPV772RMQ+
lpc_rms=-30.09
offset=2482
pitch_keycenter=D3
sample=Trombone_Marcato_Full_FF_D4.opus
tune=-26
</region>

<region>
hikey=D#4
hivel=127
lokey=D4
lovel=0
lpc=s0UQQdGOr8EKzsRBibWpwWEflEEUt3jB5SFIQd9IIcGaUAFBzXfCwGgff0D9Fe2/Y054vgSJiT9Mjh+/wcg8PqYEID810J6/+v6QP2XpYr/gHUA/5uo/v6RbhjzaFQM/
lpc_rms=-25.95
offset=3841
pitch_keycenter=D4
sample=Trombone_Marcato_Full_FF_D5.opus
tune=-10
</region>

<region>
hikey=F2
hivel=127
lokey=C1
lovel=0
lpc=+yfaQAm9fMFueodB1HxjwRzZQkEkNhrBJlDgQP5ZmsCDXmtAAY04wFID8j8x34m/DZMTPysXUL9jfsc/LAURwHEWRED0VlPAy8BBQNVzMMCuoxVAbZ3bv3WJbT/KU2y+
lpc_rms=-36.26
offset=4899
pitch_keycenter=E2
sample=Trombone_Marcato_Full_FF_E3.opus
tune=-31
</region>

<region>
hikey=F3
hivel=127
lokey=E3
lovel=0
lpc=OOzlQMXFi8GhY6VBKvyTwbC1d0GjE0LBWrUTQUUxzcDPwpJAdzBRwG++HkBb8hDAqd3PPwBydb8hG7Q/dYEPwFsJZ0Axu4zAMguKQO3uaMCElC1AWcLWv79bCj+QMZY9
lpc_rms=-29.21
offset=2891
pitch_keycenter=E3
sample=Trombone_Marcato_Full_FF_E4.opus
tune=-24
</region>

<region>
hikey=F4
hivel=127
lokey=E4
lovel=0
lpc=jkrrQHX1d8EbH3ZBcLI/we5FKEHb1QfBQADPQJvjn8AWnYFAq8wuwMLO/T8nwZi/ejZsO3d7Aj7Md+8/8CdJwIV2hUBRm37AgwRIQDoIJcABG/g/iKngvulxoL0K0KM+
lpc_rms=-23.21
offset=2213
pitch_keycenter=E4
sample=Trombone_Marcato_Full_FF_E5.opus
tune=-35
</region>

<region>
hikey=G2
hivel=127
lokey=F#2
lovel=0
lpc=5haUQB+fHMGtKyJBNvAKwaqQ70BaubrA0XiDQL5fPMC+dxNAbsDbv4vCfT8ZwsG+Idb1PVZ9E755fhc/iZCsvybH/z+cHwPA3FbzP6714L8cNLQ/rNlPv4qHVT6NQcu8
lpc_rms=-35.11
offset=3700
pitch_keycenter=F#2
sample=Trombone_Marcato_Full_FF_F#3.opus
tune=-19
</region>

<region>
hikey=G3
hivel=127
lokey=F#3
lovel=0
lpc=XV+SQJcnEsHxnghB3JffwK8dwkBBU47AZtJJQKFEFsArDvM/PI+6v6a6VD9lqwm/BlmWPi77sL7670w/ww2+v6m1AEAHtNi/2E+lP45il785Z1Q/8t79vnKClj6zWpu9
lpc_rms=-29.87
offset=2757
pitch_keycenter=F#3
sample=Trombone_Marcato_Full_FF_F#4.opus
tune=-27
</region>

<region>
hikey=G4
hivel=127
lokey=F#4
lovel=0
lpc=ncLXQFl/ecHuqolBFFVvwZCnTUGG7SPBwqcJQR6g68BndLxAMMiTwE+Nb0BvtCXAjSG5P3YDg7/Oofw/NXBxwIADqkCrpKDAZKSHQO4eY8AvWyhAi6rmvy/uUT+zNEC9
lpc_rms=-26.99
offset=4611
pitch_keycenter=F#4
sample=Trombone_Marcato_Full_FF_F#5.opus
tune=-25
</region>

<region>
hikey=A2
hivel=127
lokey=G#2
lovel=0
lpc=zO2iQEdZI8GB+hlBsW76wIdl4EB2EqnAYgdmQB40FcAtSec/ate2v0vnPT/lplu+bK5SPieAqr5Y9kk/iN6PvwC40D/lZsK/332SPzoDc78Cl2g/rKMOv9rtFjx67L09
lpc_rms=-31.47
offset=3381
pitch_keycenter=G#2
sample=Trombone_Marcato_Full_FF_G#3.opus
tune=-31
</region>

<region>
hikey=A3
hivel=127
lokey=G#3
lovel=0
lpc=Q+znQCKOiMH2zZdBdIyEwaYXbkEs4EPBIBoPQWvlzMCoV6NAq7eGwNJVXUB0ThPATbSmPxPlk78F+/E/r49AwKmEhEB7XYXA2WRmQLSUUMCDTjxAbTgMwJ8cqT+mye++
lpc_rms=-28.07
offset=1329
pitch_keycenter=G#3
sample=Trombone_Marcato_Full_FF_G#4.opus
tune=-29
</region>

<region>
hikey=A4
hivel=127
lokey=G#4
lovel=0
lpc=mVLWQC5QaMHbXGlBq2hDweN2MUHFzwzBDRLPQB8WncBBoHhAcoIywPmvA0BM+di/3eG3P+s3YL/vmFI/XjoGwKl8dED/A4DAWm9+QOaecsDIJ0VAABP+v1nBKz/1E468
lpc_rms=-20.56
offset=1775
pitch_keycenter=G#4
sample=Trombone_Marcato_Full_FF_G#5.opus
tune=-37
</region>
</group>

<group>
group_label=RR1
seq_length=4
seq_position=1

<region>
hivel=42
key=G4
lovel=0
sample=Trombone_staccato_PP_G3_RR1.opus
tune=-20
</region>

<region>
hivel=42
key=G3
lovel=0
offset=935
sample=Trombone_staccato_PP_G2_RR1.opus
tune=-4
</region>

<region>
hivel=42
key=G2
lovel=0
sample=Trombone_staccato_PP_G1_RR1.opus
tune=-8
</region>

<region>
hivel=42
key=G#4
lovel=0
offset=489
sample=Trombone_staccato_PP_G#3_RR1.opus
tune=-25
</region>

<region>
hivel=42
key=G#3
lovel=0
offset=456
sample=Trombone_staccato_PP_G#2_RR1.opus
tune=-2
</region>

<region>
hivel=42
key=G#2
lovel=0
offset=854
sample=Trombone_staccato_PP_G#1_RR1.opus
tune=-14
</region>

<region>
hivel=42
key=F4
lovel=0
offset=835
sample=Trombone_staccato_PP_F3_RR1.opus
tune=-28
</region>

<region>
hivel=42
key=F3
lovel=0
offset=1710
sample=Trombone_staccato_PP_F2_RR1.opus
tune=-25
</region>

<region>
hivel=42
key=F2
lovel=0
sample=Trombone_staccato_PP_F1_RR1.opus
tune=-6
</region>

<region>
hivel=42
key=F#4
lovel=0
sample=Trombone_staccato_PP_F#3_RR1.opus
tune=-33
</region>

<region>
hivel=42
key=F#3
lovel=0
offset=826
sample=Trombone_staccato_PP_F#2_RR1.opus
tune=+3
</region>

<region>
hivel=42
key=F#2
lovel=0
offset=2064
sample=Trombone_staccato_PP_F#1_RR1.opus
tune=-7
</region>

<region>
hivel=42
key=E4
lovel=0
offset=169
sample=Trombone_staccato_PP_E3_RR1.opus
tune=-11
</region>

<region>
hivel=42
key=E3
lovel=0
offset=1406
sample=Trombone_staccato_PP_E2_RR1.opus
tune=-15
</region>

<region>
hikey=E2
hivel=42
lokey=C1
lovel=0
offset=4419
pitch_keycenter=E2
sample=Trombone_staccato_PP_E1_RR1.opus
tune=-8
</region>

<region>
hivel=42
key=D4
lovel=0
offset=516
sample=Trombone_staccato_PP_D3_RR1.opus
tune=-23
</region>

<region>
hivel=42
key=D3
lovel=0
sample=Trombone_staccato_PP_D2_RR1.opus
tune=-16
</region>

<region>
hivel=42
key=D#4
lovel=0
offset=507
sample=Trombone_staccato_PP_D#3_RR1.opus
tune=-25
</region>

<region>
hivel=42
key=D#3
lovel=0
offset=454
sample=Trombone_staccato_PP_D#2_RR1.opus
tune=-5
</region>

<region>
hikey=D#5
hivel=42
lokey=C5
lovel=0
offset=911
pitch_keycenter=C5
sample=Trombone_staccato_PP_C4_RR1.opus
tune=-21
</region>

<region>
hikey=C4
hivel=42
lokey=C4
lovel=0
offset=770
sample=Trombone_staccato_PP_C3_RR1.opus
tune=-22
</region>

<region>
hivel=42
key=C3
lovel=0
offset=244
sample=Trombone_staccato_PP_C2_RR1.opus
tune=+15
</region>

<region>
hivel=42
key=C#4
lovel=0
offset=1581
sample=Trombone_staccato_PP_C#3_RR1.opus
tune=-13
</region>

<region>
hivel=42
key=C#3
lovel=0
offset=3580
sample=Trombone_staccato_PP_C#2_RR1.opus
tune=+3
</region>

<region>
hivel=42
key=B4
lovel=0
offset=1286
sample=Trombone_staccato_PP_B3_RR1.opus
tune=-14
</region>

<region>
hivel=42
key=B3
lovel=0
offset=1129
sample=Trombone_staccato_PP_B2_RR1.opus
tune=+5
</region>

<region>
hivel=42
key=B2
lovel=0
offset=362
sample=Trombone_staccato_PP_B1_RR1.opus
tune=-2
</region>

<region>
hivel=42
key=A4
lovel=0
offset=225
sample=Trombone_staccato_PP_A3_RR1.opus
tune=-18
</region>

<region>
hivel=42
key=A3
lovel=0
offset=605
sample=Trombone_staccato_PP_A2_RR1.opus
tune=-12
</region>

<region>
hivel=42
key=A2
lovel=0
sample=Trombone_staccato_PP_A1_RR1.opus
tune=-12
</region>

<region>
hivel=42
key=A#4
lovel=0
offset=314
sample=Trombone_staccato_PP_A#3_RR1.opus
tune=-27
</region>

<region>
hivel=42
key=A#3
lovel=0
offset=144
sample=Trombone_staccato_PP_A#2_RR1.opus
tune=+14
</region>

<region>
hivel=42
key=A#2
lovel=0
offset=3446
sample=Trombone_staccato_PP_A#1_RR1.opus
tune=-9
</region>

<region>
hivel=86
key=G4
lovel=43
offset=103
sample=Trombone_staccato_MF_G3_RR1.opus
tune=-19
</region>

<region>
hivel=86
key=G3
lovel=43
sample=Trombone_staccato_MF_G2_RR1.opus
tune=-8
</region>

<region>
hivel=86
key=G2
lovel=43
offset=1019
sample=Trombone_staccato_MF_G1_RR1.opus
tune=-25
</region>

<region>
hivel=86
key=G#4
lovel=43
offset=748
sample=Trombone_staccato_MF_G#3_RR1.opus
tune=-26
</region>

<region>
hivel=86
key=G#3
lovel=43
offset=690
sample=Trombone_staccato_MF_G#2_RR1.opus
tune=+2
</region>

<region>
hivel=86
key=G#2
lovel=43
offset=1340
sample=Trombone_staccato_MF_G#1_RR1.opus
tune=-35
</region>

<region>
hivel=86
key=F4
lovel=43
offset=781
sample=Trombone_staccato_MF_F3_RR1.opus
tune=-17
</region>

<region>
hivel=86
key=F3
lovel=43
offset=1103
sample=Trombone_staccato_MF_F2_RR1.opus
tune=-32
</region>

<region>
hivel=86
key=F2
lovel=43
offset=1811
sample=Trombone_staccato_MF_F1_RR1.opus
tune=-8
</region>

<region>
hivel=86
key=F#4
lovel=43
offset=304
sample=Trombone_staccato_MF_F#3_RR1.opus
tune=-15
</region>

<region>
hivel=86
key=F#3
lovel=43
offset=1122
sample=Trombone_staccato_MF_F#2_RR1.opus
tune=-13
</region>

<region>
hivel=86
key=F#2
lovel=43
offset=2043
sample=Trombone_staccato_MF_F#1_RR1.opus
tune=-26
</region>

<region>
hivel=86
key=E4
lovel=43
offset=787
sample=Trombone_staccato_MF_E3_RR1.opus
tune=-12
</region>

<region>
hivel=86
key=E3
lovel=43
offset=132
sample=Trombone_staccato_MF_E2_RR1.opus
tune=-19
</region>

<region>
hikey=E2
hivel=86
lokey=C1
lovel=43
offset=1818
pitch_keycenter=E2
sample=Trombone_staccato_MF_E1_RR1.opus
tune=-17
</region>

<region>
hivel=86
key=D4
lovel=43
offset=498
sample=Trombone_staccato_MF_D3_RR1.opus
tune=-17
</region>

<region>
hivel=86
key=D3
lovel=43
offset=241
sample=Trombone_staccato_MF_D2_RR1.opus
tune=-12
</region>

<region>
hivel=86
key=D#4
lovel=43
offset=896
sample=Trombone_staccato_MF_D#3_RR1.opus
tune=-17
</region>

<region>
hivel=86
key=D#3
lovel=43
offset=457
sample=Trombone_staccato_MF_D#2_RR1.opus
tune=-28
</region>

<region>
hikey=D#5
hivel=86
lokey=C5
lovel=43
offset=174
pitch_keycenter=C5
sample=Trombone_staccato_MF_C4_RR1.opus
tune=-14
</region>

<region>
hikey=C4
hivel=86
lokey=C4
lovel=43
offset=848
sample=Trombone_staccato_MF_C3_RR1.opus
tune=-6
</region>

<region>
hivel=86
key=C3
lovel=43
offset=910
sample=Trombone_staccato_MF_C2_RR1.opus
</region>

<region>
hivel=86
key=C#4
lovel=43
offset=587
sample=Trombone_staccato_MF_C#3_RR1.opus
tune=-2
</region>

<region>
hivel=86
key=C#3
lovel=43
offset=235
sample=Trombone_staccato_MF_C#2_RR1.opus
tune=-25
</region>

<region>
hivel=86
key=B4
lovel=43
offset=811
sample=Trombone_staccato_MF_B3_RR1.opus
tune=-4
</region>

<region>
hivel=86
key=B3
lovel=43
sample=Trombone_staccato_MF_B2_RR1.opus
tune=-3
</region>

<region>
hivel=86
key=B2
lovel=43
offset=634
sample=Trombone_staccato_MF_B1_RR1.opus
tune=-30
</region>

<region>
hivel=86
key=A4
lovel=43
offset=836
sample=Trombone_staccato_MF_A3_RR1.opus
tune=-20
</region>

<region>
hivel=86
key=A3
lovel=43
sample=Trombone_staccato_MF_A2_RR1.opus
tune=-8
</region>

<region>
hivel=86
key=A2
lovel=43
offset=388
sample=Trombone_staccato_MF_A1_RR1.opus
tune=-30
</region>

<region>
hivel=86
key=A#4
lovel=43
offset=233
sample=Trombone_staccato_MF_A#3_RR1.opus
tune=-13
</region>

<region>
hivel=86
key=A#3
lovel=43
offset=341
sample=Trombone_staccato_MF_A#2_RR1.opus
tune=-10
</region>

<region>
hivel=86
key=A#2
lovel=43
offset=1188
sample=Trombone_staccato_MF_A#1_RR1.opus
tune=-27
</region>

<region>
hivel=127
key=G4
lovel=87
offset=954
sample=Trombone_staccato_FF_G3_RR1.opus
tune=-10
</region>

<region>
hivel=127
key=G3
lovel=87
offset=299
sample=Trombone_staccato_FF_G2_RR1.opus
tune=-2
</region>

<region>
hivel=127
key=G2
lovel=87
offset=501
sample=Trombone_staccato_FF_G1_RR1.opus
tune=-11
</region>

<region>
hivel=127
key=G#4
lovel=87
offset=548
sample=Trombone_staccato_FF_G#3_RR1.opus
tune=-16
</region>

<region>
hivel=127
key=G#3
lovel=87
offset=826
sample=Trombone_staccato_FF_G#2_RR1.opus
tune=-23
</region>

<region>
hivel=127
key=G#2
lovel=87
offset=966
sample=Trombone_staccato_FF_G#1_RR1.opus
tune=-11
</region>

<region>
hivel=127
key=F4
lovel=87
offset=479
sample=Trombone_staccato_FF_F3_RR1.opus
tune=-20
</region>

<region>
hivel=127
key=F3
lovel=87
offset=360
sample=Trombone_staccato_FF_F2_RR1.opus
tune=-10
</region>

<region>
hivel=127
key=F2
lovel=87
offset=175
sample=Trombone_staccato_FF_F1_RR1.opus
</region>

<region>
hivel=127
key=F#4
lovel=87
offset=429
sample=Trombone_staccato_FF_F#3_RR1.opus
tune=-21
</region>

<region>
hivel=127
key=F#3
lovel=87
sample=Trombone_staccato_FF_F#2_RR1.opus
tune=+8
</region>

<region>
hivel=127
key=F#2
lovel=87
offset=461
sample=Trombone_staccato_FF_F#1_RR1.opus
tune=-19
</region>

<region>
hivel=127
key=E4
lovel=87
offset=1117
sample=Trombone_staccato_FF_E3_RR1.opus
tune=-15
</region>

<region>
hivel=127
key=E3
lovel=87
offset=313
sample=Trombone_staccato_FF_E2_RR1.opus
tune=-15
</region>

<region>
hikey=E2
hivel=127
lokey=C1
lovel=87
offset=693
pitch_keycenter=E2
sample=Trombone_staccato_FF_E1_RR1.opus
tune=-17
</region>

<region>
hivel=127
key=D4
lovel=87
offset=192
sample=Trombone_staccato_FF_D3_RR1.opus
tune=+3
</region>

<region>
hivel=127
key=D3
lovel=87
offset=854
sample=Trombone_staccato_FF_D2_RR1.opus
tune=-3
</region>

<region>
hivel=127
key=D#4
lovel=87
offset=478
sample=Trombone_staccato_FF_D#3_RR1.opus
tune=-17
</region>

<region>
hivel=127
key=D#3
lovel=87
sample=Trombone_staccato_FF_D#2_RR1.opus
tune=-12
</region>

<region>
hikey=D#5
hivel=127
lokey=C5
lovel=87
offset=1269
pitch_keycenter=C5
sample=Trombone_staccato_FF_C4_RR1.opus
tune=-22
</region>

<region>
hikey=C4
hivel=127
lokey=C4
lovel=87
offset=294
sample=Trombone_staccato_FF_C3_RR1.opus
tune=-1
</region>

<region>
hivel=127
key=C3
lovel=87
offset=621
sample=Trombone_staccato_FF_C2_RR1.opus
tune=+2
</region>

<region>
hivel=127
key=C#4
lovel=87
offset=432
sample=Trombone_staccato_FF_C#3_RR1.opus
tune=+5
</region>

<region>
hivel=127
key=C#3
lovel=87
offset=253
sample=Trombone_staccato_FF_C#2_RR1.opus
tune=-7
</region>

<region>
hivel=127
key=B4
lovel=87
offset=1589
sample=Trombone_staccato_FF_B3_RR1.opus
tune=-10
</region>

<region>
hivel=127
key=B3
lovel=87
offset=526
sample=Trombone_staccato_FF_B2_RR1.opus
tune=+3
</region>

<region>
hivel=127
key=B2
lovel=87
offset=698
sample=Trombone_staccato_FF_B1_RR1.opus
tune=-6
</region>

<region>
hivel=127
key=A4
lovel=87
offset=886
sample=Trombone_staccato_FF_A3_RR1.opus
tune=-13
</region>

<region>
hivel=127
key=A3
lovel=87
offset=673
sample=Trombone_staccato_FF_A2_RR1.opus
tune=-8
</region>

<region>
hivel=127
key=A2
lovel=87
offset=410
sample=Trombone_staccato_FF_A1_RR1.opus
tune=-12
</region>

<region>
hivel=127
key=A#4
lovel=87
offset=335
sample=Trombone_staccato_FF_A#3_RR1.opus
tune=-7
</region>

<region>
hivel=127
key=A#3
lovel=87
offset=363
sample=Trombone_staccato_FF_A#2_RR1.opus
tune=-1
</region>

<region>
hivel=127
key=A#2
lovel=87
offset=354
sample=Trombone_staccato_FF_A#1_RR1.opus
tune=-19
</region>
</group>

<group>
group_label=RR2
seq_length=4
seq_position=2

<region>
hivel=42
key=G4
lovel=0
offset=6115
sample=Trombone_staccato_PP_G3_RR2.opus
tune=-23
</region>

<region>
hivel=42
key=G3
lovel=0
offset=5776
sample=Trombone_staccato_PP_G2_RR2.opus
tune=-13
</region>

<region>
hivel=42
key=G2
lovel=0
offset=934
sample=Trombone_staccato_PP_G1_RR2.opus
tune=-9
</region>

<region>
hivel=42
key=G#4
lovel=0
offset=7496
sample=Trombone_staccato_PP_G#3_RR2.opus
tune=-32
</region>

<region>
hivel=42
key=G#3
lovel=0
offset=5362
sample=Trombone_staccato_PP_G#2_RR2.opus
tune=-8
</region>

<region>
hivel=42
key=G#2
lovel=0
offset=2888
sample=Trombone_staccato_PP_G#1_RR2.opus
tune=-15
</region>

<region>
hivel=42
key=F4
lovel=0
offset=803
sample=Trombone_staccato_PP_F3_RR2.opus
tune=-33
</region>

<region>
hivel=42
key=F3
lovel=0
offset=2867
sample=Trombone_staccato_PP_F2_RR2.opus
tune=-15
</region>

<region>
hivel=42
key=F2
lovel=0
offset=2152
sample=Trombone_staccato_PP_F1_RR2.opus
tune=-8
</region>

<region>
hivel=42
key=F#4
lovel=0
offset=183
sample=Trombone_staccato_PP_F#3_RR2.opus
tune=-41
</region>

<region>
hivel=42
key=F#3
lovel=0
offset=4809
sample=Trombone_staccato_PP_F#2_RR2.opus
tune=-2
</region>

<region>
hivel=42
key=F#2
lovel=0
offset=5645
sample=Trombone_staccato_PP_F#1_RR2.opus
tune=-8
</region>

<region>
hivel=42
key=E4
lovel=0
offset=7067
sample=Trombone_staccato_PP_E3_RR2.opus
tune=-16
</region>

<region>
hivel=42
key=E3
lovel=0
offset=1136
sample=Trombone_staccato_PP_E2_RR2.opus
tune=-20
</region>

<region>
hikey=E2
hivel=42
lokey=C1
lovel=0
offset=6648
pitch_keycenter=E2
sample=Trombone_staccato_PP_E1_RR2.opus
tune=-16
</region>

<region>
hivel=42
key=D4
lovel=0
offset=707
sample=Trombone_staccato_PP_D3_RR2.opus
tune=-25
</region>

<region>
hivel=42
key=D3
lovel=0
offset=3601
sample=Trombone_staccato_PP_D2_RR2.opus
tune=-16
</region>

<region>
hivel=42
key=D#4
lovel=0
offset=10451
sample=Trombone_staccato_PP_D#3_RR2.opus
tune=-33
</region>

<region>
hivel=42
key=D#3
lovel=0
offset=6262
sample=Trombone_staccato_PP_D#2_RR2.opus
tune=+2
</region>

<region>
hikey=D#5
hivel=42
lokey=C5
lovel=0
offset=419
pitch_keycenter=C5
sample=Trombone_staccato_PP_C4_RR2.opus
tune=-25
</region>

<region>
hikey=C4
hivel=42
lokey=C4
lovel=0
offset=7723
sample=Trombone_staccato_PP_C3_RR2.opus
tune=-20
</region>

<region>
hivel=42
key=C3
lovel=0
offset=4646
sample=Trombone_staccato_PP_C2_RR2.opus
tune=+19
</region>

<region>
hivel=42
key=C#4
lovel=0
offset=1508
sample=Trombone_staccato_PP_C#3_RR2.opus
tune=-16
</region>

<region>
hivel=42
key=C#3
lovel=0
offset=3717
sample=Trombone_staccato_PP_C#2_RR2.opus
tune=-2
</region>

<region>
hivel=42
key=B4
lovel=0
sample=Trombone_staccato_PP_B3_RR2.opus
tune=-26
</region>

<region>
hivel=42
key=B3
lovel=0
offset=478
sample=Trombone_staccato_PP_B2_RR2.opus
tune=+3
</region>

<region>
hivel=42
key=B2
lovel=0
offset=5459
sample=Trombone_staccato_PP_B1_RR2.opus
tune=-3
</region>

<region>
hivel=42
key=A4
lovel=0
sample=Trombone_staccato_PP_A3_RR2.opus
tune=-18
</region>

<region>
hivel=42
key=A3
lovel=0
offset=7017
sample=Trombone_staccato_PP_A2_RR2.opus
tune=-6
</region>

<region>
hivel=42
key=A2
lovel=0
offset=2477
sample=Trombone_staccato_PP_A1_RR2.opus
tune=-6
</region>

<region>
hivel=42
key=A#4
lovel=0
offset=8525
sample=Trombone_staccato_PP_A#3_RR2.opus
tune=-26
</region>

<region>
hivel=42
key=A#3
lovel=0
offset=342
sample=Trombone_staccato_PP_A#2_RR2.opus
tune=+6
</region>

<region>
hivel=42
key=A#2
lovel=0
offset=5932
sample=Trombone_staccato_PP_A#1_RR2.opus
tune=+1
</region>

<region>
hivel=86
key=G4
lovel=43
offset=38
sample=Trombone_staccato_MF_G3_RR2.opus
tune=-15
</region>

<region>
hivel=86
key=G3
lovel=43
offset=17
sample=Trombone_staccato_MF_G2_RR2.opus
tune=-7
</region>

<region>
hivel=86
key=G2
lovel=43
offset=1353
sample=Trombone_staccato_MF_G1_RR2.opus
tune=-28
</region>

<region>
hivel=86
key=G#4
lovel=43
offset=796
sample=Trombone_staccato_MF_G#3_RR2.opus
tune=-31
</region>

<region>
hivel=86
key=G#3
lovel=43
offset=480
sample=Trombone_staccato_MF_G#2_RR2.opus
</region>

<region>
hivel=86
key=G#2
lovel=43
offset=2213
sample=Trombone_staccato_MF_G#1_RR2.opus
tune=-39
</region>

<region>
hivel=86
key=F4
lovel=43
offset=1048
sample=Trombone_staccato_MF_F3_RR2.opus
tune=-17
</region>

<region>
hivel=86
key=F3
lovel=43
sample=Trombone_staccato_MF_F2_RR2.opus
tune=-30
</region>

<region>
hivel=86
key=F2
lovel=43
offset=6314
sample=Trombone_staccato_MF_F1_RR2.opus
tune=-13
</region>

<region>
hivel=86
key=F#4
lovel=43
offset=412
sample=Trombone_staccato_MF_F#3_RR2.opus
tune=-19
</region>

<region>
hivel=86
key=F#3
lovel=43
offset=795
sample=Trombone_staccato_MF_F#2_RR2.opus
tune=-16
</region>

<region>
hivel=86
key=F#2
lovel=43
offset=6386
sample=Trombone_staccato_MF_F#1_RR2.opus
tune=-33
</region>

<region>
hivel=86
key=E4
lovel=43
offset=8260
sample=Trombone_staccato_MF_E3_RR2.opus
tune=-16
</region>

<region>
hivel=86
key=E3
lovel=43
offset=6298
sample=Trombone_staccato_MF_E2_RR2.opus
tune=-21
</region>

<region>
hikey=E2
hivel=86
lokey=C1
lovel=43
offset=1280
pitch_keycenter=E2
sample=Trombone_staccato_MF_E1_RR2.opus
tune=-24
</region>

<region>
hivel=86
key=D4
lovel=43
offset=214
sample=Trombone_staccato_MF_D3_RR2.opus
tune=-18
</region>

<region>
hivel=86
key=D3
lovel=43
offset=835
sample=Trombone_staccato_MF_D2_RR2.opus
tune=-18
</region>

<region>
hivel=86
key=D#4
lovel=43
offset=7942
sample=Trombone_staccato_MF_D#3_RR2.opus
tune=-24
</region>

<region>
hivel=86
key=D#3
lovel=43
offset=788
sample=Trombone_staccato_MF_D#2_RR2.opus
tune=-30
</region>

<region>
hikey=D#5
hivel=86
lokey=C5
lovel=43
offset=6718
pitch_keycenter=C5
sample=Trombone_staccato_MF_C4_RR2.opus
tune=-15
</region>

<region>
hikey=C4
hivel=86
lokey=C4
lovel=43
offset=7989
sample=Trombone_staccato_MF_C3_RR2.opus
tune=-9
</region>

<region>
hivel=86
key=C3
lovel=43
offset=617
sample=Trombone_staccato_MF_C2_RR2.opus
tune=-4
</region>

<region>
hivel=86
key=C#4
lovel=43
offset=9922
sample=Trombone_staccato_MF_C#3_RR2.opus
tune=-4
</region>

<region>
hivel=86
key=C#3
lovel=43
offset=7328
sample=Trombone_staccato_MF_C#2_RR2.opus
tune=-24
</region>

<region>
hivel=86
key=B4
lovel=43
offset=463
sample=Trombone_staccato_MF_B3_RR2.opus
tune=-17
</region>

<region>
hivel=86
key=B3
lovel=43
offset=7322
sample=Trombone_staccato_MF_B2_RR2.opus
tune=-3
</region>

<region>
hivel=86
key=B2
lovel=43
offset=4513
sample=Trombone_staccato_MF_B1_RR2.opus
tune=-32
</region>

<region>
hivel=86
key=A4
lovel=43
offset=765
sample=Trombone_staccato_MF_A3_RR2.opus
tune=-25
</region>

<region>
hivel=86
key=A3
lovel=43
sample=Trombone_staccato_MF_A2_RR2.opus
tune=-12
</region>

<region>
hivel=86
key=A2
lovel=43
offset=4500
sample=Trombone_staccato_MF_A1_RR2.opus
tune=-26
</region>

<region>
hivel=86
key=A#4
lovel=43
offset=7210
sample=Trombone_staccato_MF_A#3_RR2.opus
tune=-17
</region>

<region>
hivel=86
key=A#3
lovel=43
offset=54
sample=Trombone_staccato_MF_A#2_RR2.opus
tune=-11
</region>

<region>
hivel=86
key=A#2
lovel=43
offset=355
sample=Trombone_staccato_MF_A#1_RR2.opus
tune=-21
</region>

<region>
hivel=127
key=G4
lovel=87
offset=5949
sample=Trombone_staccato_FF_G3_RR2.opus
tune=-16
</region>

<region>
hivel=127
key=G3
lovel=87
offset=8875
sample=Trombone_staccato_FF_G2_RR2.opus
tune=-5
</region>

<region>
hivel=127
key=G2
lovel=87
offset=503
sample=Trombone_staccato_FF_G1_RR2.opus
tune=-16
</region>

<region>
hivel=127
key=G#4
lovel=87
offset=6583
sample=Trombone_staccato_FF_G#3_RR2.opus
tune=-20
</region>

<region>
hivel=127
key=G#3
lovel=87
offset=596
sample=Trombone_staccato_FF_G#2_RR2.opus
tune=-27
</region>

<region>
hivel=127
key=G#2
lovel=87
offset=464
sample=Trombone_staccato_FF_G#1_RR2.opus
tune=-21
</region>

<region>
hivel=127
key=F4
lovel=87
offset=9331
sample=Trombone_staccato_FF_F3_RR2.opus
tune=-22
</region>

<region>
hivel=127
key=F3
lovel=87
offset=355
sample=Trombone_staccato_FF_F2_RR2.opus
tune=-10
</region>

<region>
hivel=127
key=F2
lovel=87
offset=615
sample=Trombone_staccato_FF_F1_RR2.opus
tune=-2
</region>

<region>
hivel=127
key=F#4
lovel=87
offset=410
sample=Trombone_staccato_FF_F#3_RR2.opus
tune=-19
</region>

<region>
hivel=127
key=F#3
lovel=87
sample=Trombone_staccato_FF_F#2_RR2.opus
tune=-1
</region>

<region>
hivel=127
key=F#2
lovel=87
offset=3768
sample=Trombone_staccato_FF_F#1_RR2.opus
tune=-20
</region>

<region>
hivel=127
key=E4
lovel=87
offset=1029
sample=Trombone_staccato_FF_E3_RR2.opus
tune=-16
</region>

<region>
hivel=127
key=E3
lovel=87
offset=582
sample=Trombone_staccato_FF_E2_RR2.opus
tune=-14
</region>

<region>
hikey=E2
hivel=127
lokey=C1
lovel=87
offset=8972
pitch_keycenter=E2
sample=Trombone_staccato_FF_E1_RR2.opus
tune=-34
</region>

<region>
hivel=127
key=D4
lovel=87
offset=187
sample=Trombone_staccato_FF_D3_RR2.opus
</region>

<region>
hivel=127
key=D3
lovel=87
offset=186
sample=Trombone_staccato_FF_D2_RR2.opus
tune=-14
</region>

<region>
hivel=127
key=D#4
lovel=87
offset=885
sample=Trombone_staccato_FF_D#3_RR2.opus
tune=-23
</region>

<region>
hivel=127
key=D#3
lovel=87
offset=910
sample=Trombone_staccato_FF_D#2_RR2.opus
tune=-17
</region>

<region>
hikey=D#5
hivel=127
lokey=C5
lovel=87
offset=1436
pitch_keycenter=C5
sample=Trombone_staccato_FF_C4_RR2.opus
tune=-21
</region>

<region>
hikey=C4
hivel=127
lokey=C4
lovel=87
offset=553
sample=Trombone_staccato_FF_C3_RR2.opus
tune=-3
</region>

<region>
hivel=127
key=C3
lovel=87
offset=621
sample=Trombone_staccato_FF_C2_RR2.opus
tune=-3
</region>

<region>
hivel=127
key=C#4
lovel=87
offset=433
sample=Trombone_staccato_FF_C#3_RR2.opus
tune=+4
</region>

<region>
hivel=127
key=C#3
lovel=87
offset=561
sample=Trombone_staccato_FF_C#2_RR2.opus
tune=-6
</region>

<region>
hivel=127
key=B4
lovel=87
offset=1004
sample=Trombone_staccato_FF_B3_RR2.opus
tune=-14
</region>

<region>
hivel=127
key=B3
lovel=87
offset=7063
sample=Trombone_staccato_FF_B2_RR2.opus
tune=+1
</region>

<region>
hivel=127
key=B2
lovel=87
offset=1041
sample=Trombone_staccato_FF_B1_RR2.opus
tune=-16
</region>

<region>
hivel=127
key=A4
lovel=87
offset=1036
sample=Trombone_staccato_FF_A3_RR2.opus
tune=-19
</region>

<region>
hivel=127
key=A3
lovel=87
offset=956
sample=Trombone_staccato_FF_A2_RR2.opus
tune=-7
</region>

<region>
hivel=127
key=A2
lovel=87
offset=373
sample=Trombone_staccato_FF_A1_RR2.opus
tune=-16
</region>

<region>
hivel=127
key=A#4
lovel=87
offset=458
sample=Trombone_staccato_FF_A#3_RR2.opus
tune=-9
</region>

<region>
hivel=127
key=A#3
lovel=87
sample=Trombone_staccato_FF_A#2_RR2.opus
tune=-6
</region>

<region>
hivel=127
key=A#2
lovel=87
offset=353
sample=Trombone_staccato_FF_A#1_RR2.opus
tune=-19
</region>
</group>

<group>
group_label=RR3
seq_length=4
seq_position=3

<region>
hivel=42
key=G4
lovel=0
sample=Trombone_staccato_PP_G3_RR3.opus
tune=-26
</region>

<region>
hivel=42
key=G3
lovel=0
offset=8704
sample=Trombone_staccato_PP_G2_RR3.opus
tune=-10
</region>

<region>
hivel=42
key=G2
lovel=0
offset=7559
sample=Trombone_staccato_PP_G1_RR3.opus
tune=-1
</region>

<region>
hivel=42
key=G#4
lovel=0
offset=1227
sample=Trombone_staccato_PP_G#3_RR3.opus
tune=-37
</region>

<region>
hivel=42
key=G#3
lovel=0
offset=5943
sample=Trombone_staccato_PP_G#2_RR3.opus
tune=-7
</region>

<region>
hivel=42
key=G#2
lovel=0
offset=5023
sample=Trombone_staccato_PP_G#1_RR3.opus
tune=-20
</region>

<region>
hivel=42
key=F4
lovel=0
offset=6404
sample=Trombone_staccato_PP_F3_RR3.opus
tune=-36
</region>

<region>
hivel=42
key=F3
lovel=0
offset=7423
sample=Trombone_staccato_PP_F2_RR3.opus
tune=-9
</region>

<region>
hivel=42
key=F2
lovel=0
offset=1754
sample=Trombone_staccato_PP_F1_RR3.opus
tune=-7
</region>

<region>
hivel=42
key=F#4
lovel=0
offset=3847
sample=Trombone_staccato_PP_F#3_RR3.opus
tune=-39
</region>

<region>
hivel=42
key=F#3
lovel=0
offset=6597
sample=Trombone_staccato_PP_F#2_RR3.opus
tune=-3
</region>

<region>
hivel=42
key=F#2
lovel=0
offset=6741
sample=Trombone_staccato_PP_F#1_RR3.opus
tune=-10
</region>

<region>
hivel=42
key=E4
lovel=0
offset=6148
sample=Trombone_staccato_PP_E3_RR3.opus
tune=-17
</region>

<region>
hivel=42
key=E3
lovel=0
offset=2590
sample=Trombone_staccato_PP_E2_RR3.opus
tune=-21
</region>

<region>
hikey=E2
hivel=42
lokey=C1
lovel=0
offset=5957
pitch_keycenter=E2
sample=Trombone_staccato_PP_E1_RR3.opus
tune=-13
</region>

<region>
hivel=42
key=D4
lovel=0
offset=8903
sample=Trombone_staccato_PP_D3_RR3.opus
tune=-22
</region>

<region>
hivel=42
key=D3
lovel=0
offset=1829
sample=Trombone_staccato_PP_D2_RR3.opus
tune=-18
</region>

<region>
hivel=42
key=D#4
lovel=0
offset=7238
sample=Trombone_staccato_PP_D#3_RR3.opus
tune=-35
</region>

<region>
hivel=42
key=D#3
lovel=0
offset=4246
sample=Trombone_staccato_PP_D#2_RR3.opus
tune=+14
</region>

<region>
hikey=D#5
hivel=42
lokey=C5
lovel=0
pitch_keycenter=C5
sample=Trombone_staccato_PP_C4_RR3.opus
tune=-22
</region>

<region>
hikey=C4
hivel=42
lokey=C4
lovel=0
offset=7047
sample=Trombone_staccato_PP_C3_RR3.opus
tune=-16
</region>

<region>
hivel=42
key=C3
lovel=0
offset=2460
sample=Trombone_staccato_PP_C2_RR3.opus
tune=+16
</region>

<region>
hivel=42
key=C#4
lovel=0
offset=480
sample=Trombone_staccato_PP_C#3_RR3.opus
tune=-19
</region>

<region>
hivel=42
key=C#3
lovel=0
offset=4196
sample=Trombone_staccato_PP_C#2_RR3.opus
tune=-2
</region>

<region>
hivel=42
key=B4
lovel=0
offset=290
sample=Trombone_staccato_PP_B3_RR3.opus
tune=-25
</region>

<region>
hivel=42
key=B3
lovel=0
offset=6987
sample=Trombone_staccato_PP_B2_RR3.opus
tune=-5
</region>

<region>
hivel=42
key=B2
lovel=0
offset=6688
sample=Trombone_staccato_PP_B1_RR3.opus
tune=-5
</region>

<region>
hivel=42
key=A4
lovel=0
sample=Trombone_staccato_PP_A3_RR3.opus
tune=-21
</region>

<region>
hivel=42
key=A3
lovel=0
offset=310
sample=Trombone_staccato_PP_A2_RR3.opus
tune=-1
</region>

<region>
hivel=42
key=A2
lovel=0
offset=3542
sample=Trombone_staccato_PP_A1_RR3.opus
tune=-8
</region>

<region>
hivel=42
key=A#4
lovel=0
offset=401
sample=Trombone_staccato_PP_A#3_RR3.opus
tune=-28
</region>

<region>
hivel=42
key=A#3
lovel=0
offset=9600
sample=Trombone_staccato_PP_A#2_RR3.opus
tune=+4
</region>

<region>
hivel=42
key=A#2
lovel=0
offset=2057
sample=Trombone_staccato_PP_A#1_RR3.opus
tune=-6
</region>

<region>
hivel=86
key=G4
lovel=43
offset=111
sample=Trombone_staccato_MF_G3_RR3.opus
tune=-17
</region>

<region>
hivel=86
key=G3
lovel=43
offset=6889
sample=Trombone_staccato_MF_G2_RR3.opus
tune=-17
</region>

<region>
hivel=86
key=G2
lovel=43
offset=1375
sample=Trombone_staccato_MF_G1_RR3.opus
tune=-30
</region>

<region>
hivel=86
key=G#4
lovel=43
offset=823
sample=Trombone_staccato_MF_G#3_RR3.opus
tune=-30
</region>

<region>
hivel=86
key=G#3
lovel=43
offset=272
sample=Trombone_staccato_MF_G#2_RR3.opus
tune=-7
</region>

<region>
hivel=86
key=G#2
lovel=43
offset=3635
sample=Trombone_staccato_MF_G#1_RR3.opus
tune=-44
</region>

<region>
hivel=86
key=F4
lovel=43
offset=7740
sample=Trombone_staccato_MF_F3_RR3.opus
tune=-21
</region>

<region>
hivel=86
key=F3
lovel=43
offset=5979
sample=Trombone_staccato_MF_F2_RR3.opus
tune=-26
</region>

<region>
hivel=86
key=F2
lovel=43
offset=9005
sample=Trombone_staccato_MF_F1_RR3.opus
tune=-10
</region>

<region>
hivel=86
key=F#4
lovel=43
offset=331
sample=Trombone_staccato_MF_F#3_RR3.opus
tune=-17
</region>

<region>
hivel=86
key=F#3
lovel=43
offset=6168
sample=Trombone_staccato_MF_F#2_RR3.opus
tune=-14
</region>

<region>
hivel=86
key=F#2
lovel=43
offset=3855
sample=Trombone_staccato_MF_F#1_RR3.opus
tune=-30
</region>

<region>
hivel=86
key=E4
lovel=43
offset=5875
sample=Trombone_staccato_MF_E3_RR3.opus
tune=-19
</region>

<region>
hivel=86
key=E3
lovel=43
offset=6013
sample=Trombone_staccato_MF_E2_RR3.opus
tune=-14
</region>

<region>
hikey=E2
hivel=86
lokey=C1
lovel=43
offset=5688
pitch_keycenter=E2
sample=Trombone_staccato_MF_E1_RR3.opus
tune=-22
</region>

<region>
hivel=86
key=D4
lovel=43
offset=377
sample=Trombone_staccato_MF_D3_RR3.opus
tune=-23
</region>

<region>
hivel=86
key=D3
lovel=43
offset=1092
sample=Trombone_staccato_MF_D2_RR3.opus
tune=-12
</region>

<region>
hivel=86
key=D#4
lovel=43
offset=977
sample=Trombone_staccato_MF_D#3_RR3.opus
tune=-28
</region>

<region>
hivel=86
key=D#3
lovel=43
offset=1941
sample=Trombone_staccato_MF_D#2_RR3.opus
tune=-30
</region>

<region>
hikey=D#5
hivel=86
lokey=C5
lovel=43
offset=7847
pitch_keycenter=C5
sample=Trombone_staccato_MF_C4_RR3.opus
tune=-16
</region>

<region>
hikey=C4
hivel=86
lokey=C4
lovel=43
offset=7770
sample=Trombone_staccato_MF_C3_RR3.opus
tune=-5
</region>

<region>
hivel=86
key=C3
lovel=43
offset=4125
sample=Trombone_staccato_MF_C2_RR3.opus
tune=-6
</region>

<region>
hivel=86
key=C#4
lovel=43
offset=7065
sample=Trombone_staccato_MF_C#3_RR3.opus
tune=-11
</region>

<region>
hivel=86
key=C#3
lovel=43
offset=4558
sample=Trombone_staccato_MF_C#2_RR3.opus
tune=-31
</region>

<region>
hivel=86
key=B4
lovel=43
offset=196
sample=Trombone_staccato_MF_B3_RR3.opus
tune=-16
</region>

<region>
hivel=86
key=B3
lovel=43
offset=703
sample=Trombone_staccato_MF_B2_RR3.opus
tune=-9
</region>

<region>
hivel=86
key=B2
lovel=43
offset=4901
sample=Trombone_staccato_MF_B1_RR3.opus
tune=-35
</region>

<region>
hivel=86
key=A4
lovel=43
offset=473
sample=Trombone_staccato_MF_A3_RR3.opus
tune=-24
</region>

<region>
hivel=86
key=A3
lovel=43
offset=317
sample=Trombone_staccato_MF_A2_RR3.opus
tune=-14
</region>

<region>
hivel=86
key=A2
lovel=43
offset=4844
sample=Trombone_staccato_MF_A1_RR3.opus
tune=-26
</region>

<region>
hivel=86
key=A#4
lovel=43
offset=5438
sample=Trombone_staccato_MF_A#3_RR3.opus
tune=-18
</region>

<region>
hivel=86
key=A#3
lovel=43
offset=342
sample=Trombone_staccato_MF_A#2_RR3.opus
tune=-10
</region>

<region>
hivel=86
key=A#2
lovel=43
offset=3790
sample=Trombone_staccato_MF_A#1_RR3.opus
tune=-21
</region>

<region>
hivel=127
key=G4
lovel=87
offset=804
sample=Trombone_staccato_FF_G3_RR3.opus
tune=-16
</region>

<region>
hivel=127
key=G3
lovel=87
offset=5597
sample=Trombone_staccato_FF_G2_RR3.opus
tune=-10
</region>

<region>
hivel=127
key=G2
lovel=87
offset=871
sample=Trombone_staccato_FF_G1_RR3.opus
tune=-21
</region>

<region>
hivel=127
key=G#4
lovel=87
offset=5045
sample=Trombone_staccato_FF_G#3_RR3.opus
tune=-20
</region>

<region>
hivel=127
key=G#3
lovel=87
offset=467
sample=Trombone_staccato_FF_G#2_RR3.opus
tune=-25
</region>

<region>
hivel=127
key=G#2
lovel=87
offset=454
sample=Trombone_staccato_FF_G#1_RR3.opus
tune=-19
</region>

<region>
hivel=127
key=F4
lovel=87
offset=7412
sample=Trombone_staccato_FF_F3_RR3.opus
tune=-21
</region>

<region>
hivel=127
key=F3
lovel=87
offset=343
sample=Trombone_staccato_FF_F2_RR3.opus
tune=-14
</region>

<region>
hivel=127
key=F2
lovel=87
offset=171
sample=Trombone_staccato_FF_F1_RR3.opus
tune=-1
</region>

<region>
hivel=127
key=F#4
lovel=87
offset=429
sample=Trombone_staccato_FF_F#3_RR3.opus
tune=-21
</region>

<region>
hivel=127
key=F#3
lovel=87
sample=Trombone_staccato_FF_F#2_RR3.opus
</region>

<region>
hivel=127
key=F#2
lovel=87
offset=5197
sample=Trombone_staccato_FF_F#1_RR3.opus
tune=-24
</region>

<region>
hivel=127
key=E4
lovel=87
offset=724
sample=Trombone_staccato_FF_E3_RR3.opus
tune=-17
</region>

<region>
hivel=127
key=E3
lovel=87
offset=130
sample=Trombone_staccato_FF_E2_RR3.opus
tune=-13
</region>

<region>
hikey=E2
hivel=127
lokey=C1
lovel=87
offset=7429
pitch_keycenter=E2
sample=Trombone_staccato_FF_E1_RR3.opus
tune=-33
</region>

<region>
hivel=127
key=D4
lovel=87
offset=202
sample=Trombone_staccato_FF_D3_RR3.opus
tune=+1
</region>

<region>
hivel=127
key=D3
lovel=87
offset=531
sample=Trombone_staccato_FF_D2_RR3.opus
tune=-2
</region>

<region>
hivel=127
key=D#4
lovel=87
offset=6582
sample=Trombone_staccato_FF_D#3_RR3.opus
tune=-18
</region>

<region>
hivel=127
key=D#3
lovel=87
sample=Trombone_staccato_FF_D#2_RR3.opus
tune=-14
</region>

<region>
hikey=D#5
hivel=127
lokey=C5
lovel=87
offset=1343
pitch_keycenter=C5
sample=Trombone_staccato_FF_C4_RR3.opus
tune=-16
</region>

<region>
hikey=C4
hivel=127
lokey=C4
lovel=87
offset=550
sample=Trombone_staccato_FF_C3_RR3.opus
tune=-4
</region>

<region>
hivel=127
key=C3
lovel=87
offset=619
sample=Trombone_staccato_FF_C2_RR3.opus
tune=+9
</region>

<region>
hivel=127
key=C#4
lovel=87
offset=434
sample=Trombone_staccato_FF_C#3_RR3.opus
tune=+5
</region>

<region>
hivel=127
key=C#3
lovel=87
sample=Trombone_staccato_FF_C#2_RR3.opus
tune=-9
</region>

<region>
hivel=127
key=B4
lovel=87
offset=1185
sample=Trombone_staccato_FF_B3_RR3.opus
tune=-13
</region>

<region>
hivel=127
key=B3
lovel=87
offset=5545
sample=Trombone_staccato_FF_B2_RR3.opus
tune=-9
</region>

<region>
hivel=127
key=B2
lovel=87
offset=1042
sample=Trombone_staccato_FF_B1_RR3.opus
tune=-17
</region>

<region>
hivel=127
key=A4
lovel=87
offset=1037
sample=Trombone_staccato_FF_A3_RR3.opus
tune=-11
</region>

<region>
hivel=127
key=A3
lovel=87
offset=632
sample=Trombone_staccato_FF_A2_RR3.opus
tune=-6
</region>

<region>
hivel=127
key=A2
lovel=87
offset=392
sample=Trombone_staccato_FF_A1_RR3.opus
tune=-14
</region>

<region>
hivel=127
key=A#4
lovel=87
offset=772
sample=Trombone_staccato_FF_A#3_RR3.opus
tune=-8
</region>

<region>
hivel=127
key=A#3
lovel=87
offset=759
sample=Trombone_staccato_FF_A#2_RR3.opus
tune=-2
</region>

<region>
hivel=127
key=A#2
lovel=87
offset=355
sample=Trombone_staccato_FF_A#1_RR3.opus
tune=-19
</region>
</group>

<group>
group_label=RR4
seq_length=4
seq_position=4

<region>
hivel=42
key=G4
lovel=0
offset=7134
sample=Trombone_staccato_PP_G3_RR4.opus
tune=-22
</region>

<region>
hivel=42
key=G3
lovel=0
offset=6884
sample=Trombone_staccato_PP_G2_RR4.opus
tune=-17
</region>

<region>
hivel=42
key=G2
lovel=0
offset=7523
sample=Trombone_staccato_PP_G1_RR4.opus
tune=-6
</region>

<region>
hivel=42
key=G#4
lovel=0
offset=6553
sample=Trombone_staccato_PP_G#3_RR4.opus
tune=-37
</region>

<region>
hivel=42
key=G#3
lovel=0
offset=1774
sample=Trombone_staccato_PP_G#2_RR4.opus
tune=-9
</region>

<region>
hivel=42
key=G#2
lovel=0
offset=5298
sample=Trombone_staccato_PP_G#1_RR4.opus
tune=-9
</region>

<region>
hivel=42
key=F4
lovel=0
offset=6312
sample=Trombone_staccato_PP_F3_RR4.opus
tune=-33
</region>

<region>
hivel=42
key=F3
lovel=0
offset=6149
sample=Trombone_staccato_PP_F2_RR4.opus
tune=-15
</region>

<region>
hivel=42
key=F2
lovel=0
offset=8288
sample=Trombone_staccato_PP_F1_RR4.opus
tune=-17
</region>

<region>
hivel=42
key=F#4
lovel=0
offset=4448
sample=Trombone_staccato_PP_F#3_RR4.opus
tune=-36
</region>

<region>
hivel=42
key=F#3
lovel=0
offset=8457
sample=Trombone_staccato_PP_F#2_RR4.opus
tune=+3
</region>

<region>
hivel=42
key=F#2
lovel=0
offset=7221
sample=Trombone_staccato_PP_F#1_RR4.opus
tune=-6
</region>

<region>
hivel=42
key=E4
lovel=0
offset=6125
sample=Trombone_staccato_PP_E3_RR4.opus
tune=-16
</region>

<region>
hivel=42
key=E3
lovel=0
offset=2057
sample=Trombone_staccato_PP_E2_RR4.opus
tune=-13
</region>

<region>
hikey=E2
hivel=42
lokey=C1
lovel=0
offset=7871
pitch_keycenter=E2
sample=Trombone_staccato_PP_E1_RR4.opus
tune=-17
</region>

<region>
hivel=42
key=D4
lovel=0
offset=7152
sample=Trombone_staccato_PP_D3_RR4.opus
tune=-23
</region>

<region>
hivel=42
key=D3
lovel=0
offset=2647
sample=Trombone_staccato_PP_D2_RR4.opus
tune=-20
</region>

<region>
hivel=42
key=D#4
lovel=0
offset=10485
sample=Trombone_staccato_PP_D#3_RR4.opus
tune=-35
</region>

<region>
hivel=42
key=D#3
lovel=0
offset=5646
sample=Trombone_staccato_PP_D#2_RR4.opus
tune=+10
</region>

<region>
hikey=D#5
hivel=42
lokey=C5
lovel=0
offset=415
pitch_keycenter=C5
sample=Trombone_staccato_PP_C4_RR4.opus
tune=-28
</region>

<region>
hikey=C4
hivel=42
lokey=C4
lovel=0
offset=6127
sample=Trombone_staccato_PP_C3_RR4.opus
tune=-13
</region>

<region>
hivel=42
key=C3
lovel=0
offset=653
sample=Trombone_staccato_PP_C2_RR4.opus
tune=+23
</region>

<region>
hivel=42
key=C#4
lovel=0
offset=68
sample=Trombone_staccato_PP_C#3_RR4.opus
tune=-27
</region>

<region>
hivel=42
key=C#3
lovel=0
offset=5206
sample=Trombone_staccato_PP_C#2_RR4.opus
tune=+4
</region>

<region>
hivel=42
key=B4
lovel=0
offset=9
sample=Trombone_staccato_PP_B3_RR4.opus
tune=-26
</region>

<region>
hivel=42
key=B3
lovel=0
offset=776
sample=Trombone_staccato_PP_B2_RR4.opus
tune=-3
</region>

<region>
hivel=42
key=B2
lovel=0
offset=6593
sample=Trombone_staccato_PP_B1_RR4.opus
tune=-8
</region>

<region>
hivel=42
key=A4
lovel=0
sample=Trombone_staccato_PP_A3_RR4.opus
tune=-21
</region>

<region>
hivel=42
key=A3
lovel=0
offset=1300
sample=Trombone_staccato_PP_A2_RR4.opus
tune=+4
</region>

<region>
hivel=42
key=A2
lovel=0
offset=6113
sample=Trombone_staccato_PP_A1_RR4.opus
tune=-7
</region>

<region>
hivel=42
key=A#4
lovel=0
offset=309
sample=Trombone_staccato_PP_A#3_RR4.opus
tune=-23
</region>

<region>
hivel=42
key=A#3
lovel=0
offset=1481
sample=Trombone_staccato_PP_A#2_RR4.opus
tune=-1
</region>

<region>
hivel=42
key=A#2
lovel=0
offset=4913
sample=Trombone_staccato_PP_A#1_RR4.opus
tune=-11
</region>

<region>
hivel=86
key=G4
lovel=43
offset=155
sample=Trombone_staccato_MF_G3_RR4.opus
tune=-20
</region>

<region>
hivel=86
key=G3
lovel=43
offset=6181
sample=Trombone_staccato_MF_G2_RR4.opus
tune=-12
</region>

<region>
hivel=86
key=G2
lovel=43
offset=535
sample=Trombone_staccato_MF_G1_RR4.opus
tune=-24
</region>

<region>
hivel=86
key=G#4
lovel=43
offset=327
sample=Trombone_staccato_MF_G#3_RR4.opus
tune=-32
</region>

<region>
hivel=86
key=G#3
lovel=43
offset=271
sample=Trombone_staccato_MF_G#2_RR4.opus
tune=-9
</region>

<region>
hivel=86
key=G#2
lovel=43
offset=4543
sample=Trombone_staccato_MF_G#1_RR4.opus
tune=-35
</region>

<region>
hivel=86
key=F4
lovel=43
offset=8271
sample=Trombone_staccato_MF_F3_RR4.opus
tune=-15
</region>

<region>
hivel=86
key=F3
lovel=43
sample=Trombone_staccato_MF_F2_RR4.opus
tune=-21
</region>

<region>
hivel=86
key=F2
lovel=43
offset=7752
sample=Trombone_staccato_MF_F1_RR4.opus
tune=-11
</region>

<region>
hivel=86
key=F#4
lovel=43
offset=410
sample=Trombone_staccato_MF_F#3_RR4.opus
tune=-17
</region>

<region>
hivel=86
key=F#3
lovel=43
offset=7328
sample=Trombone_staccato_MF_F#2_RR4.opus
tune=-12
</region>

<region>
hivel=86
key=F#2
lovel=43
offset=950
sample=Trombone_staccato_MF_F#1_RR4.opus
tune=-24
</region>

<region>
hivel=86
key=E4
lovel=43
offset=96
sample=Trombone_staccato_MF_E3_RR4.opus
tune=-20
</region>

<region>
hivel=86
key=E3
lovel=43
offset=434
sample=Trombone_staccato_MF_E2_RR4.opus
tune=-9
</region>

<region>
hikey=E2
hivel=86
lokey=C1
lovel=43
offset=8523
pitch_keycenter=E2
sample=Trombone_staccato_MF_E1_RR4.opus
tune=-30
</region>

<region>
hivel=86
key=D4
lovel=43
sample=Trombone_staccato_MF_D3_RR4.opus
tune=-21
</region>

<region>
hivel=86
key=D3
lovel=43
offset=7153
sample=Trombone_staccato_MF_D2_RR4.opus
tune=-11
</region>

<region>
hivel=86
key=D#4
lovel=43
offset=1266
sample=Trombone_staccato_MF_D#3_RR4.opus
tune=-31
</region>

<region>
hivel=86
key=D#3
lovel=43
offset=4475
sample=Trombone_staccato_MF_D#2_RR4.opus
tune=-28
</region>

<region>
hikey=D#5
hivel=86
lokey=C5
lovel=43
offset=497
pitch_keycenter=C5
sample=Trombone_staccato_MF_C4_RR4.opus
tune=-23
</region>

<region>
hikey=C4
hivel=86
lokey=C4
lovel=43
offset=7572
sample=Trombone_staccato_MF_C3_RR4.opus
tune=-7
</region>

<region>
hivel=86
key=C3
lovel=43
offset=5078
sample=Trombone_staccato_MF_C2_RR4.opus
tune=-4
</region>

<region>
hivel=86
key=C#4
lovel=43
offset=837
sample=Trombone_staccato_MF_C#3_RR4.opus
tune=-12
</region>

<region>
hivel=86
key=C#3
lovel=43
offset=958
sample=Trombone_staccato_MF_C#2_RR4.opus
tune=-29
</region>

<region>
hivel=86
key=B4
lovel=43
offset=479
sample=Trombone_staccato_MF_B3_RR4.opus
tune=-26
</region>

<region>
hivel=86
key=B3
lovel=43
offset=506
sample=Trombone_staccato_MF_B2_RR4.opus
tune=-5
</region>

<region>
hivel=86
key=B2
lovel=43
offset=5072
sample=Trombone_staccato_MF_B1_RR4.opus
tune=-33
</region>

<region>
hivel=86
key=A4
lovel=43
offset=654
sample=Trombone_staccato_MF_A3_RR4.opus
tune=-25
</region>

<region>
hivel=86
key=A3
lovel=43
sample=Trombone_staccato_MF_A2_RR4.opus
tune=-9
</region>

<region>
hivel=86
key=A2
lovel=43
offset=4354
sample=Trombone_staccato_MF_A1_RR4.opus
tune=-21
</region>

<region>
hivel=86
key=A#4
lovel=43
offset=678
sample=Trombone_staccato_MF_A#3_RR4.opus
tune=-21
</region>

<region>
hivel=86
key=A#3
lovel=43
offset=52
sample=Trombone_staccato_MF_A#2_RR4.opus
tune=-19
</region>

<region>
hivel=86
key=A#2
lovel=43
offset=4983
sample=Trombone_staccato_MF_A#1_RR4.opus
tune=-19
</region>

<region>
hivel=127
key=G4
lovel=87
offset=581
sample=Trombone_staccato_FF_G3_RR4.opus
tune=-18
</region>

<region>
hivel=127
key=G3
lovel=87
offset=5393
sample=Trombone_staccato_FF_G2_RR4.opus
tune=-7
</region>

<region>
hivel=127
key=G2
lovel=87
offset=489
sample=Trombone_staccato_FF_G1_RR4.opus
tune=-24
</region>

<region>
hivel=127
key=G#4
lovel=87
offset=356
sample=Trombone_staccato_FF_G#3_RR4.opus
tune=-23
</region>

<region>
hivel=127
key=G#3
lovel=87
offset=4329
sample=Trombone_staccato_FF_G#2_RR4.opus
tune=-26
</region>

<region>
hivel=127
key=G#2
lovel=87
offset=951
sample=Trombone_staccato_FF_G#1_RR4.opus
tune=-13
</region>

<region>
hivel=127
key=F4
lovel=87
offset=347
sample=Trombone_staccato_FF_F3_RR4.opus
tune=-21
</region>

<region>
hivel=127
key=F3
lovel=87
offset=6026
sample=Trombone_staccato_FF_F2_RR4.opus
tune=-13
</region>

<region>
hivel=127
key=F2
lovel=87
offset=616
sample=Trombone_staccato_FF_F1_RR4.opus
tune=-5
</region>

<region>
hivel=127
key=F#4
lovel=87
offset=341
sample=Trombone_staccato_FF_F#3_RR4.opus
tune=-21
</region>

<region>
hivel=127
key=F#3
lovel=87
offset=42
sample=Trombone_staccato_FF_F#2_RR4.opus
tune=-5
</region>

<region>
hivel=127
key=F#2
lovel=87
offset=5464
sample=Trombone_staccato_FF_F#1_RR4.opus
tune=-25
</region>

<region>
hivel=127
key=E4
lovel=87
offset=1035
sample=Trombone_staccato_FF_E3_RR4.opus
tune=-15
</region>

<region>
hivel=127
key=E3
lovel=87
offset=965
sample=Trombone_staccato_FF_E2_RR4.opus
tune=-16
</region>

<region>
hikey=E2
hivel=127
lokey=C1
lovel=87
offset=6207
pitch_keycenter=E2
sample=Trombone_staccato_FF_E1_RR4.opus
tune=-29
</region>

<region>
hivel=127
key=D4
lovel=87
offset=332
sample=Trombone_staccato_FF_D3_RR4.opus
tune=+5
</region>

<region>
hivel=127
key=D3
lovel=87
offset=521
sample=Trombone_staccato_FF_D2_RR4.opus
tune=-8
</region>

<region>
hivel=127
key=D#4
lovel=87
offset=672
sample=Trombone_staccato_FF_D#3_RR4.opus
tune=-16
</region>

<region>
hivel=127
key=D#3
lovel=87
offset=455
sample=Trombone_staccato_FF_D#2_RR4.opus
tune=-18
</region>

<region>
hikey=D#5
hivel=127
lokey=C5
lovel=87
offset=590
pitch_keycenter=C5
sample=Trombone_staccato_FF_C4_RR4.opus
tune=-15
</region>

<region>
hikey=C4
hivel=127
lokey=C4
lovel=87
offset=87
sample=Trombone_staccato_FF_C3_RR4.opus
tune=-5
</region>

<region>
hivel=127
key=C3
lovel=87
offset=3468
sample=Trombone_staccato_FF_C2_RR4.opus
tune=+6
</region>

<region>
hivel=127
key=C#4
lovel=87
offset=440
sample=Trombone_staccato_FF_C#3_RR4.opus
tune=+9
</region>

<region>
hivel=127
key=C#3
lovel=87
offset=259
sample=Trombone_staccato_FF_C#2_RR4.opus
tune=-12
</region>

<region>
hivel=127
key=B4
lovel=87
offset=1529
sample=Trombone_staccato_FF_B3_RR4.opus
tune=-16
</region>

<region>
hivel=127
key=B3
lovel=87
offset=732
sample=Trombone_staccato_FF_B2_RR4.opus
tune=-5
</region>

<region>
hivel=127
key=B2
lovel=87
offset=791
sample=Trombone_staccato_FF_B1_RR4.opus
tune=-11
</region>

<region>
hivel=127
key=A4
lovel=87
offset=537
sample=Trombone_staccato_FF_A3_RR4.opus
tune=-16
</region>

<region>
hivel=127
key=A3
lovel=87
offset=424
sample=Trombone_staccato_FF_A2_RR4.opus
tune=-4
</region>

<region>
hivel=127
key=A2
lovel=87
offset=390
sample=Trombone_staccato_FF_A1_RR4.opus
tune=-18
</region>

<region>
hivel=127
key=A#4
lovel=87
offset=970
sample=Trombone_staccato_FF_A#3_RR4.opus
tune=-11
</region>

<region>
hivel=127
key=A#3
lovel=87
offset=357
sample=Trombone_staccato_FF_A#2_RR4.opus
tune=-3
</region>

<region>
hivel=127
key=A#2
lovel=87
sample=Trombone_staccato_FF_A#1_RR4.opus
tune=-18
</region>
</group>